<svg xmlns="http://www.w3.org/2000/svg" viewBox="0 0 956 388" width="956" height="388" role="img" aria-label="Push and pull" font-family="-apple-system, BlinkMacSystemFont, &quot;Segoe UI&quot;, &quot;Noto Sans&quot;, Helvetica, Arial, sans-serif">
<title>Push and pull</title>
<desc>The commands reach the adapter only through its interfaces; the project-folder check and the env scan are shared code they both call.</desc>
<defs><pattern id="dots" width="18" height="18" patternUnits="userSpaceOnUse"><circle cx="1.5" cy="1.5" r="1" fill="rgba(140,149,159,.5)"/></pattern><marker id="mk-added" viewBox="0 0 10 10" refX="8" refY="5" markerWidth="6.5" markerHeight="6.5" orient="auto-start-reverse"><path d="M0,0 L10,5 L0,10 z" fill="#1f883d"/></marker><marker id="mko-added" viewBox="0 0 10 10" refX="10" refY="5" markerWidth="6.5" markerHeight="6.5" orient="auto-start-reverse"><path d="M2,1 L10,5 L2,9" fill="none" stroke="#1f883d" stroke-width="1.6" stroke-linecap="round" stroke-linejoin="round"/></marker><marker id="mk-modified" viewBox="0 0 10 10" refX="8" refY="5" markerWidth="6.5" markerHeight="6.5" orient="auto-start-reverse"><path d="M0,0 L10,5 L0,10 z" fill="#bf8700"/></marker><marker id="mko-modified" viewBox="0 0 10 10" refX="10" refY="5" markerWidth="6.5" markerHeight="6.5" orient="auto-start-reverse"><path d="M2,1 L10,5 L2,9" fill="none" stroke="#bf8700" stroke-width="1.6" stroke-linecap="round" stroke-linejoin="round"/></marker><marker id="mk-removed" viewBox="0 0 10 10" refX="8" refY="5" markerWidth="6.5" markerHeight="6.5" orient="auto-start-reverse"><path d="M0,0 L10,5 L0,10 z" fill="#cf222e"/></marker><marker id="mko-removed" viewBox="0 0 10 10" refX="10" refY="5" markerWidth="6.5" markerHeight="6.5" orient="auto-start-reverse"><path d="M2,1 L10,5 L2,9" fill="none" stroke="#cf222e" stroke-width="1.6" stroke-linecap="round" stroke-linejoin="round"/></marker><marker id="mk-neutral" viewBox="0 0 10 10" refX="8" refY="5" markerWidth="6.5" markerHeight="6.5" orient="auto-start-reverse"><path d="M0,0 L10,5 L0,10 z" fill="#8c959f"/></marker><marker id="mko-neutral" viewBox="0 0 10 10" refX="10" refY="5" markerWidth="6.5" markerHeight="6.5" orient="auto-start-reverse"><path d="M2,1 L10,5 L2,9" fill="none" stroke="#8c959f" stroke-width="1.6" stroke-linecap="round" stroke-linejoin="round"/></marker></defs>
<rect x="0" y="0" width="956" height="388" rx="12" fill="#f4f5f7"/>
<rect x="0" y="0" width="956" height="388" rx="12" fill="url(#dots)"/>
<g><rect class="lanebox" x="16" y="44" width="404" height="328" rx="12" fill="rgba(255,255,255,.55)"/>
<text class="lanelabel" x="32" y="68" font-size="10" font-weight="700" letter-spacing=".12em" fill="#59636e">CLI COMMANDS · PUSH, PULL, THE PROGRAM</text>
<rect class="lanebox" x="536" y="44" width="404" height="328" rx="12" fill="rgba(255,255,255,.55)"/>
<text class="lanelabel" x="552" y="68" font-size="10" font-weight="700" letter-spacing=".12em" fill="#59636e">GENERIC CODE · ADAPTER INTERFACES, ENV SCAN, SHA…</text></g>
<g><path class="edge edge-neutral context" d="M114,248 L114,253 C114,255.76 116.24,258 119,258 L428,258 C446.78,258 462,273.22 462,292 L462,300 C462,318.78 477.22,334 496,334 L552,334" marker-end="url(#mk-neutral)" fill="none" stroke="#8c959f" stroke-width="1.5" opacity="0.82"/>
<path class="edge edge-neutral context" d="M404,234 L425,234 C436.6,234 446,243.4 446,255 L446,284 C446,302.78 461.22,318 480,318 L552,318" marker-end="url(#mk-neutral)" fill="none" stroke="#8c959f" stroke-width="1.5" opacity="0.82"/>
<path class="edge edge-modified" d="M130,248 L130,261 C130,268.18 135.82,274 143,274 L488,274 C500.15,274 510,264.15 510,252 L510,251 C510,239.4 519.4,230 531,230 L552,230" marker-end="url(#mk-modified)" fill="none" stroke="#bf8700" stroke-width="1.5"/>
<path class="edge edge-modified" d="M404,218 L552,218" marker-end="url(#mk-modified)" fill="none" stroke="#bf8700" stroke-width="1.5"/>
<path class="edge edge-neutral context" d="M404,210 L474,210 C485.05,210 494,201.05 494,190 C494,178.95 502.95,170 514,170 L821,170 C828.18,170 834,175.82 834,183 L834,196" marker-end="url(#mk-neutral)" fill="none" stroke="#8c959f" stroke-width="1.5" opacity="0.82"/>
<path class="edge edge-modified" d="M786,248 L786,300" marker-end="url(#mk-modified)" fill="none" stroke="#bf8700" stroke-width="1.5"/></g>
<g><g class="cardsh context" filter="drop-shadow(0 1px 2px rgba(31,35,40,.14))" opacity="0.82"><rect class="card" x="32" y="92" width="180" height="52" rx="10" fill="#ffffff" stroke-width="1" stroke="#d1d9e0"/>
<rect class="chip" x="46" y="105" width="26" height="26" rx="7" fill="#f1f3f5"/><g><rect class="glyph-stroke" x="52" y="112" width="14" height="12" rx="2" stroke="#59636e" stroke-width="1.4" fill="none"/>
<path class="glyph-stroke" d="M56.5,112 v12" stroke="#59636e" stroke-width="1.4" fill="none"/></g>
<text class="ntitle" x="82" y="123" font-size="11.5" font-weight="600" fill="#1f2328">Terminal</text></g>
<g class="cardsh" filter="drop-shadow(0 1px 2px rgba(31,35,40,.14))"><rect class="card card-modified" x="224" y="92" width="180" height="52" rx="10" fill="#ffffff" stroke-width="1" stroke="#bf8700" stroke-opacity="0.5"/>
<rect class="chip" x="238" y="105" width="26" height="26" rx="7" fill="#f1f3f5"/><g><path class="glyph-stroke" d="M244,114 h14" stroke="#59636e" stroke-width="1.4" fill="none"/>
<path class="glyph-stroke" d="M244,122 h14" stroke="#59636e" stroke-width="1.4" fill="none"/>
<circle class="glyph" fill="#59636e" cx="249" cy="114" r="2.2"/>
<circle class="glyph" fill="#59636e" cx="254" cy="122" r="2.2"/></g>
<text class="ntitle" x="274" y="123" font-size="11.5" font-weight="600" fill="#1f2328">program.ts</text>
<g class="bdg bdg-modified"><rect x="330.38" y="84" width="66.62" height="16" rx="8" fill="#fae17d" stroke="rgba(154,103,0,.55)" stroke-width="1"/><text x="363.69" y="95" text-anchor="middle" font-size="8.5" font-weight="700" letter-spacing=".06em" fill="#7d4e00">CHANGED</text></g></g>
<g class="cardsh" filter="drop-shadow(0 1px 2px rgba(31,35,40,.14))"><rect class="card card-modified" x="32" y="196" width="180" height="52" rx="10" fill="#ffffff" stroke-width="1" stroke="#bf8700" stroke-opacity="0.5"/>
<rect class="chip" x="46" y="209" width="26" height="26" rx="7" fill="#f1f3f5"/><g><text class="glyph" x="59" y="226.5" text-anchor="middle" fill="#59636e" font-size="11" font-family="ui-monospace, SFMono-Regular, &quot;SF Mono&quot;, Menlo, Consolas, monospace">{ }</text></g>
<text class="ntitle" x="82" y="227" font-size="11.5" font-weight="600" fill="#1f2328">pull-command.ts</text>
<g class="bdg bdg-modified"><rect x="138.38" y="188" width="66.62" height="16" rx="8" fill="#fae17d" stroke="rgba(154,103,0,.55)" stroke-width="1"/><text x="171.69" y="199" text-anchor="middle" font-size="8.5" font-weight="700" letter-spacing=".06em" fill="#7d4e00">CHANGED</text></g></g>
<g class="cardsh" filter="drop-shadow(0 1px 2px rgba(31,35,40,.14))"><rect class="card card-modified" x="224" y="196" width="180" height="52" rx="10" fill="#ffffff" stroke-width="1" stroke="#bf8700" stroke-opacity="0.5"/>
<rect class="chip" x="238" y="209" width="26" height="26" rx="7" fill="#f1f3f5"/><g><text class="glyph" x="251" y="226.5" text-anchor="middle" fill="#59636e" font-size="11" font-family="ui-monospace, SFMono-Regular, &quot;SF Mono&quot;, Menlo, Consolas, monospace">{ }</text></g>
<text class="ntitle" x="274" y="227" font-size="11.5" font-weight="600" fill="#1f2328">push-command.ts</text>
<g class="bdg bdg-modified"><rect x="330.38" y="188" width="66.62" height="16" rx="8" fill="#fae17d" stroke="rgba(154,103,0,.55)" stroke-width="1"/><text x="363.69" y="199" text-anchor="middle" font-size="8.5" font-weight="700" letter-spacing=".06em" fill="#7d4e00">CHANGED</text></g></g>
<g class="cardsh" filter="drop-shadow(0 1px 2px rgba(31,35,40,.14))"><rect class="card card-modified" x="552" y="196" width="180" height="52" rx="10" fill="#ffffff" stroke-width="1" stroke="#bf8700" stroke-opacity="0.5"/>
<rect class="chip" x="566" y="209" width="26" height="26" rx="7" fill="#f1f3f5"/><g><text class="glyph" x="579" y="226.5" text-anchor="middle" fill="#59636e" font-size="11" font-family="ui-monospace, SFMono-Regular, &quot;SF Mono&quot;, Menlo, Consolas, monospace">{ }</text></g>
<text class="ntitle" x="602" y="227" font-size="11.5" font-weight="600" fill="#1f2328">project-folder.ts</text>
<g class="bdg bdg-modified"><rect x="658.38" y="188" width="66.62" height="16" rx="8" fill="#fae17d" stroke="rgba(154,103,0,.55)" stroke-width="1"/><text x="691.69" y="199" text-anchor="middle" font-size="8.5" font-weight="700" letter-spacing=".06em" fill="#7d4e00">CHANGED</text></g></g>
<g class="cardsh" filter="drop-shadow(0 1px 2px rgba(31,35,40,.14))"><rect class="card card-modified" x="744" y="196" width="180" height="52" rx="10" fill="#ffffff" stroke-width="1" stroke="#bf8700" stroke-opacity="0.5"/>
<rect class="chip" x="758" y="209" width="26" height="26" rx="7" fill="#f1f3f5"/><g><text class="glyph" x="771" y="226.5" text-anchor="middle" fill="#59636e" font-size="11" font-family="ui-monospace, SFMono-Regular, &quot;SF Mono&quot;, Menlo, Consolas, monospace">{ }</text></g>
<text class="ntitle" x="794" y="227" font-size="11.5" font-weight="600" fill="#1f2328">env-references.ts</text>
<g class="bdg bdg-modified"><rect x="850.38" y="188" width="66.62" height="16" rx="8" fill="#fae17d" stroke="rgba(154,103,0,.55)" stroke-width="1"/><text x="883.69" y="199" text-anchor="middle" font-size="8.5" font-weight="700" letter-spacing=".06em" fill="#7d4e00">CHANGED</text></g></g>
<g class="cardsh" filter="drop-shadow(0 1px 2px rgba(31,35,40,.14))"><rect class="card card-modified" x="552" y="300" width="372" height="52" rx="10" fill="#ffffff" stroke-width="1" stroke="#bf8700" stroke-opacity="0.5"/>
<rect class="chip" x="566" y="313" width="26" height="26" rx="7" fill="#f1f3f5"/><g><text class="glyph" x="579" y="330.5" text-anchor="middle" fill="#59636e" font-size="11" font-family="ui-monospace, SFMono-Regular, &quot;SF Mono&quot;, Menlo, Consolas, monospace">{ }</text></g>
<text class="ntitle" x="602" y="331" font-size="13" font-weight="600" fill="#1f2328">adapter.ts</text>
<g class="bdg bdg-modified"><rect x="850.38" y="292" width="66.62" height="16" rx="8" fill="#fae17d" stroke="rgba(154,103,0,.55)" stroke-width="1"/><text x="883.69" y="303" text-anchor="middle" font-size="8.5" font-weight="700" letter-spacing=".06em" fill="#7d4e00">CHANGED</text></g></g></g>
<g><g><rect class="lpill" x="397.47" y="284.5" width="129.07" height="15" rx="7.5" fill="#ffffff" stroke="#d8dee4" stroke-width="1"/><text class="ltext" x="462" y="295.5" text-anchor="middle" font-size="9.5" font-weight="600" fill="#59636e">reaches agents only here</text></g>
<g><rect class="lpill" x="361.47" y="259.5" width="129.07" height="15" rx="7.5" fill="#ffffff" stroke="#d8dee4" stroke-width="1"/><text class="ltext" x="426" y="270.5" text-anchor="middle" font-size="9.5" font-weight="600" fill="#59636e">reaches agents only here</text></g>
<g><rect class="lpill" x="227.47" y="266.5" width="124" height="15" rx="7.5" fill="#ffffff" stroke="#d8dee4" stroke-width="1"/><text class="ltext ltext-modified" x="289.47" y="277.5" text-anchor="middle" font-size="9.5" font-weight="600" fill="#7d4e00">projectFolderRefusalFor</text></g>
<g><rect class="lpill" x="416" y="210.5" width="124" height="15" rx="7.5" fill="#ffffff" stroke="#d8dee4" stroke-width="1"/><text class="ltext ltext-modified" x="478" y="221.5" text-anchor="middle" font-size="9.5" font-weight="600" fill="#7d4e00">projectFolderRefusalFor</text></g>
<g><rect class="lpill" x="599.33" y="162.5" width="136.35" height="15" rx="7.5" fill="#ffffff" stroke="#d8dee4" stroke-width="1"/><text class="ltext" x="667.5" y="173.5" text-anchor="middle" font-size="9.5" font-weight="600" fill="#59636e">scan ${VAR} before saving</text></g>
<g><rect class="lpill" x="737.15" y="266.5" width="97.7" height="15" rx="7.5" fill="#ffffff" stroke="#d8dee4" stroke-width="1"/><text class="ltext ltext-modified" x="786" y="277.5" text-anchor="middle" font-size="9.5" font-weight="600" fill="#7d4e00">mcpFileKind(path)</text></g></g>
</svg>